<?xml version="1.0" encoding="UTF-8"?>
<svg width="90px" height="90px" viewBox="0 0 90 90" version="1.1" xmlns="http://www.w3.org/2000/svg" xmlns:xlink="http://www.w3.org/1999/xlink">
    <!-- Generator: Sketch 44.1 (41455) - http://www.bohemiancoding.com/sketch -->
    <title>Shape</title>
    <desc>Created with Sketch.</desc>
    <defs></defs>
    <g id="Page-1" stroke="none" stroke-width="1" fill="none" fill-rule="evenodd">
        <path d="M87.5,20 L82.5,20 L82.5,17.5 C82.5,16.119 81.381,15 80,15 L70.794,15 C67.218,15 63.685,14.427 60.293,13.295 C58.708,12.767 57.058,12.5 55.389,12.5 C51.888,12.5 48.571,13.664 45.857,15.789 C40.917,6.222 30.95,0 20,0 C18.619,0 17.5,1.119 17.5,2.5 L17.5,15 L10,15 C8.619,15 7.5,16.119 7.5,17.5 L7.5,20 L2.5,20 C1.119,20 0,21.119 0,22.5 L0,85 C0,86.381 1.119,87.5 2.5,87.5 L37.5,87.5 C37.5,88.881 38.619,90 40,90 L50,90 C51.381,90 52.5,88.881 52.5,87.5 L87.5,87.5 C88.881,87.5 90,86.381 90,85 L90,22.5 C90,21.119 88.881,20 87.5,20 Z M47.5,21.036 L47.957,20.578 C49.942,18.593 52.582,17.5 55.389,17.5 C56.52,17.5 57.639,17.682 58.713,18.039 C62.615,19.34 66.68,20 70.794,20 L77.5,20 L77.5,72.5 L70.794,72.5 C67.218,72.5 63.685,71.927 60.293,70.795 C58.708,70.268 57.058,70 55.389,70 C52.569,70 49.864,70.748 47.5,72.149 L47.5,21.036 Z M22.5,5.131 C31.44,6.07 39.244,11.992 42.5,20.484 L42.5,68.184 C37.58,62.199 30.388,58.294 22.5,57.609 L22.5,5.131 Z M12.5,20 L17.5,20 L17.5,60 C17.5,61.381 18.619,62.5 20,62.5 C26.865,62.5 33.271,65.448 37.754,70.317 C35.133,69.78 32.306,69.93 29.706,70.796 C26.314,71.927 22.781,72.5 19.205,72.5 L12.5,72.5 L12.5,20 Z M85,82.5 L50,82.5 C48.619,82.5 47.5,83.619 47.5,85 L42.5,85 C42.5,83.619 41.381,82.5 40,82.5 L5,82.5 L5,25 L7.5,25 L7.5,75 C7.5,76.381 8.619,77.5 10,77.5 L19.206,77.5 C23.32,77.5 27.385,76.84 31.288,75.54 C32.362,75.182 33.48,75 34.611,75 C37.418,75 40.057,76.093 42.043,78.078 L43.232,79.267 C44.189,80.224 45.807,80.227 46.767,79.267 L47.956,78.078 C49.942,76.093 52.582,75 55.389,75 C56.52,75 57.639,75.182 58.713,75.539 C62.615,76.84 66.68,77.5 70.794,77.5 L80,77.5 C81.381,77.5 82.5,76.381 82.5,75 L82.5,25 L85,25 L85,82.5 Z" id="Shape" fill="#000000" fill-rule="nonzero"></path>
    </g>
</svg>